# xmcd
#
# Track frame offsets: 
#        150
#        18734
#        42252
#        65997
#        86175
#        107594
#        135154
#        163759
#        180750
#        206261
#        221186
#
# Disc length: 3142 seconds
#
# Revision: 0
# Processed by: cddbd v1.5.2PL0 Copyright (c) Steve Scherf et al.
# Submitted via: ExactAudioCopy v0.99pb5
#
DISCID=980c440b
DTITLE=Connie Lush - Send Me No Flowers
DYEAR=2011
DGENRE=Blues
TTITLE0=Lonely Avenue
TTITLE1=Morning Blues
TTITLE2=Crying Won't Help You
TTITLE3=Send Me No Flowers
TTITLE4=Take The Stars
TTITLE5=Jesus On The Mainline/I Could Have Had Religion
TTITLE6=I Could Have Had Religion
TTITLE7=Queen
TTITLE8=(You Keep Me) Hangin' On
TTITLE9=Nobody's Fault
TTITLE10=Yeh Yeh I Know You
EXTD=
EXTT0=
EXTT1=
EXTT2=
EXTT3=
EXTT4=
EXTT5=
EXTT6=
EXTT7=
EXTT8=
EXTT9=
EXTT10=
PLAYORDER=
